<svg xmlns="http://www.w3.org/2000/svg" viewBox="0 0 758.04 170" width="758.04" height="170">
<svg x="10" y="10" width="150" height="150" viewBox="0 0 200 200">
    <rect x="18" y="18" width="164" height="164" rx="42" fill="#FFFFFF"></rect>
    <circle cx="90" cy="120" r="33" fill="none" stroke="#16191C" stroke-width="20"></circle>
    <rect x="123" y="48" width="20" height="104" rx="10" fill="#16191C"></rect>
    <circle cx="90" cy="120" r="9" fill="#E08A2B"></circle>
  </svg>
<g transform="translate(189.32,130)">
<path d="M35.88 2.16L35.88 2.16Q28.92 2.16 23.22-0.36Q17.52-2.88 13.32-7.38Q9.12-11.88 6.90-18Q4.68-24.12 4.68-31.20L4.68-31.20L4.68-33.96Q4.68-41.04 6.78-47.16Q8.88-53.28 12.90-57.90Q16.92-62.52 22.56-65.10Q28.20-67.68 35.16-67.68L35.16-67.68Q43.08-67.68 48.84-64.32L48.84-64.32Q53.40-61.56 56.40-56.76L56.40-56.76L56.40-87.60L75.72-87.60L75.72 0L60.48 0L60.48-13.80Q59.88-12.48 59.28-11.28L59.28-11.28Q55.68-4.68 49.68-1.26Q43.68 2.16 35.88 2.16ZM40.68-13.92L40.68-13.92Q45.12-13.92 48.78-15.90Q52.44-17.88 54.66-21.72Q56.88-25.56 56.88-30.96L56.88-30.96L56.88-35.40Q56.88-40.68 54.60-44.28Q52.32-47.88 48.60-49.80Q44.88-51.72 40.56-51.72L40.56-51.72Q35.76-51.72 31.98-49.26Q28.20-46.80 26.04-42.54Q23.88-38.28 23.88-32.58Q23.88-26.88 26.04-22.68Q28.20-18.48 32.04-16.20Q35.88-13.92 40.68-13.92ZM121.56 2.28L121.56 2.28Q112.92 2.28 106.20-0.42Q99.48-3.12 94.86-7.80Q90.24-12.48 87.84-18.54Q85.44-24.60 85.44-31.32L85.44-31.32L85.44-34.08Q85.44-40.92 87.90-47.10Q90.36-53.28 95.10-57.96Q99.84-62.64 106.56-65.34Q113.28-68.04 121.56-68.04L121.56-68.04Q130.08-68.04 136.74-65.34Q143.40-62.64 148.08-57.96Q152.76-53.28 155.28-47.10Q157.80-40.92 157.80-34.08L157.80-34.08L157.80-31.32Q157.80-24.60 155.40-18.54Q153-12.48 148.38-7.80Q143.76-3.12 137.04-0.42Q130.32 2.28 121.56 2.28ZM121.56-13.92L121.56-13.92Q127.20-13.92 130.92-16.32Q134.64-18.72 136.62-23.04Q138.60-27.36 138.60-32.64L138.60-32.64Q138.60-38.28 136.56-42.54Q134.52-46.80 130.74-49.32Q126.96-51.84 121.56-51.84L121.56-51.84Q116.28-51.84 112.44-49.32Q108.60-46.80 106.62-42.54Q104.64-38.28 104.64-32.64L104.64-32.64Q104.64-27.36 106.56-23.04Q108.48-18.72 112.32-16.32Q116.16-13.92 121.56-13.92ZM192.60 2.04L192.60 2.04Q178.56 2.04 170.64-3.72Q162.72-9.48 162.24-19.92L162.24-19.92L179.28-19.92Q179.76-16.80 183.06-14.34Q186.36-11.88 192.96-11.88L192.96-11.88Q198-11.88 201.30-13.62Q204.60-15.36 204.60-18.60L204.60-18.60Q204.60-21.48 202.08-23.22Q199.56-24.96 193.08-25.68L193.08-25.68L187.92-26.16Q176.04-27.36 170.10-32.76Q164.16-38.16 164.16-46.56L164.16-46.56Q164.16-53.52 167.64-58.20Q171.12-62.88 177.30-65.28Q183.48-67.68 191.40-67.68L191.40-67.68Q204.12-67.68 211.92-62.10Q219.72-56.52 220.08-45.96L220.08-45.96L203.04-45.96Q202.56-49.20 199.68-51.42Q196.80-53.64 191.16-53.64L191.16-53.64Q186.72-53.64 184.08-51.96Q181.44-50.28 181.44-47.40L181.44-47.40Q181.44-44.64 183.72-43.20Q186-41.76 191.16-41.16L191.16-41.16L196.32-40.68Q208.44-39.36 215.16-33.96Q221.88-28.56 221.88-19.44L221.88-19.44Q221.88-12.84 218.28-7.98Q214.68-3.12 208.08-0.54Q201.48 2.04 192.60 2.04ZM269.88 0.84L260.64 0.84Q250.68 0.84 244.56-1.62Q238.44-4.08 235.62-9.90Q232.80-15.72 232.80-25.68L232.80-25.68L232.80-51.72L222.84-51.72L222.84-65.76L232.80-65.76L232.80-83.52L250.68-83.52L250.68-65.76L269.88-65.76L269.88-51.72L250.68-51.72L250.68-24.96Q250.68-20.28 253.14-17.82Q255.60-15.36 260.16-15.36L260.16-15.36L269.88-15.36L269.88 0.84ZM334.20 0L318.96 0L318.96-12.36Q318.12-9.96 317.04-8.04L317.04-8.04Q314.28-3.36 309.54-0.84Q304.80 1.68 297.96 1.68L297.96 1.68Q290.88 1.68 285.54-0.84Q280.20-3.36 277.20-8.10Q274.20-12.84 274.20-19.44L274.20-19.44Q274.20-26.64 277.92-31.26Q281.64-35.88 288.36-38.10Q295.08-40.32 303.84-40.32L303.84-40.32L315.72-40.32L315.72-40.56Q315.72-45.60 313.32-48.12Q310.92-50.64 305.64-50.64L305.64-50.64Q303-50.64 298.68-50.52Q294.36-50.40 289.80-50.16Q285.24-49.92 281.52-49.68L281.52-49.68L281.52-65.88Q284.28-66.12 288-66.36Q291.72-66.60 295.68-66.72Q299.64-66.84 303.12-66.84L303.12-66.84Q313.20-66.84 320.10-63.96Q327-61.08 330.60-55.26Q334.20-49.44 334.20-40.32L334.20-40.32L334.20 0ZM315.72-24.36L315.72-29.64L303.72-29.64Q298.68-29.64 295.98-27.18Q293.28-24.72 293.28-20.52L293.28-20.52Q293.28-16.56 295.98-14.10Q298.68-11.64 303.72-11.64L303.72-11.64Q306.96-11.64 309.54-12.78Q312.12-13.92 313.80-16.68Q315.48-19.44 315.72-24.36L315.72-24.36ZM384.48 0L357.84 0L340.20-65.76L359.04-65.76L371.40-15.96L374.04-15.96L383.04-63.60L404.04-63.60L414.36-15.96L416.88-15.96L428.04-65.76L445.68-65.76L429.84 0L403.08 0L393.24-43.20L384.48 0Z" fill="#FFFFFF"></path>
<path d="M476.28 0L457.08 0L457.08-51.60L448.32-51.60L448.32-65.76L476.28-65.76L476.28 0ZM464.52-72.24L464.52-72.24Q459.12-72.24 456.54-75.06Q453.96-77.88 453.96-82.26Q453.96-86.64 456.54-89.46Q459.12-92.28 464.52-92.28L464.52-92.28Q469.92-92.28 472.50-89.46Q475.08-86.64 475.08-82.26Q475.08-77.88 472.50-75.06Q469.92-72.24 464.52-72.24ZM522.48 2.28L522.48 2.28Q513.84 2.28 507.12-0.42Q500.40-3.12 495.78-7.80Q491.16-12.48 488.76-18.54Q486.36-24.60 486.36-31.32L486.36-31.32L486.36-34.08Q486.36-40.92 488.82-47.10Q491.28-53.28 496.02-57.96Q500.76-62.64 507.48-65.34Q514.20-68.04 522.48-68.04L522.48-68.04Q531.00-68.04 537.66-65.34Q544.32-62.64 549-57.96Q553.68-53.28 556.20-47.10Q558.72-40.92 558.72-34.08L558.72-34.08L558.72-31.32Q558.72-24.60 556.32-18.54Q553.92-12.48 549.30-7.80Q544.68-3.12 537.96-0.42Q531.24 2.28 522.48 2.28ZM522.48-13.92L522.48-13.92Q528.12-13.92 531.84-16.32Q535.56-18.72 537.54-23.04Q539.52-27.36 539.52-32.64L539.52-32.64Q539.52-38.28 537.48-42.54Q535.44-46.80 531.66-49.32Q527.88-51.84 522.48-51.84L522.48-51.84Q517.20-51.84 513.36-49.32Q509.52-46.80 507.54-42.54Q505.56-38.28 505.56-32.64L505.56-32.64Q505.56-27.36 507.48-23.04Q509.40-18.72 513.24-16.32Q517.08-13.92 522.48-13.92Z" fill="#E08A2B"></path>
</g>
</svg>